<svg width="32" height="31" viewBox="0 0 32 31" fill="none" xmlns="http://www.w3.org/2000/svg">
<path d="M15.5556 0C6.96559 0 0 6.96437 0 15.5556C0 22.4286 4.45715 28.2595 10.6379 30.3164C11.4153 30.4604 11.7008 29.9789 11.7008 29.568C11.7008 29.1972 11.6863 27.9717 11.6797 26.6719C7.35197 27.6129 6.4388 24.8365 6.4388 24.8365C5.7312 23.0385 4.71164 22.5605 4.71164 22.5605C3.30035 21.595 4.81803 21.6147 4.81803 21.6147C6.38011 21.7245 7.20264 23.2178 7.20264 23.2178C8.59002 25.596 10.8417 24.9084 11.7293 24.511C11.8689 23.5055 12.2721 22.8194 12.7169 22.4309C9.26188 22.0375 5.62969 20.7036 5.62969 14.7432C5.62969 13.045 6.23737 11.6572 7.23253 10.5679C7.071 10.176 6.53859 8.59393 7.3832 6.45124C7.3832 6.45124 8.68945 6.03315 11.6621 8.04578C12.9028 7.70101 14.2336 7.52826 15.5556 7.5224C16.8776 7.52826 18.2094 7.70101 19.4525 8.04578C22.4217 6.03315 23.7261 6.45124 23.7261 6.45124C24.5728 8.59393 24.0401 10.176 23.8786 10.5679C24.8759 11.6572 25.4795 13.0449 25.4795 14.7432C25.4795 20.7178 21.8404 22.0334 18.3766 22.4185C18.9345 22.9012 19.4317 23.848 19.4317 25.2991C19.4317 27.3805 19.4136 29.0556 19.4136 29.568C19.4136 29.982 19.6936 30.4671 20.4822 30.3143C26.6596 28.2551 31.1111 22.4263 31.1111 15.5556C31.1111 6.96437 24.1465 0 15.5556 0Z" fill="white"/>
</svg>
