<svg width="15" height="32" viewBox="0 0 15 32" fill="none" xmlns="http://www.w3.org/2000/svg">
<path d="M6.92818 0.0849762L7.76304 1.6443C7.95074 1.93206 8.15408 2.18676 8.39358 2.42397C9.09577 3.11354 9.75028 3.84951 10.3527 4.62686C11.7672 6.47394 12.7214 8.52518 13.4027 10.7436C13.8114 12.0988 14.0333 13.489 14.0499 14.8947C14.1183 19.0973 12.6695 22.7059 9.74852 25.705C9.27338 26.1806 8.76008 26.6169 8.21371 27.0096C7.92434 27.0096 7.78748 26.789 7.66822 26.5858C7.45102 26.209 7.30647 25.7952 7.24199 25.3657C7.13934 24.8573 7.07189 24.3489 7.10513 23.8239V23.5867C7.08167 23.5361 6.82652 0.204551 6.92818 0.0849762Z" fill="#599636"/>
<path d="M6.9282 0.0334449C6.89399 -0.0346056 6.85977 0.0169183 6.82556 0.0499715C6.84218 0.390224 6.72291 0.693535 6.53619 0.983236C6.3309 1.27099 6.05913 1.49167 5.78639 1.72888C4.27113 3.0335 3.07848 4.60936 2.12338 6.37187C0.852527 8.74391 0.197547 11.2861 0.011806 13.9624C-0.0732437 14.9278 0.318767 18.3342 0.62475 19.317C1.45961 21.9263 2.95922 24.1126 4.90167 26.0103C5.37874 26.4672 5.88903 26.891 6.41693 27.2984C6.57041 27.2984 6.58703 27.1623 6.62222 27.0612C6.68951 26.8448 6.74081 26.6239 6.7757 26.4001L7.11786 23.8589L6.9282 0.0334449Z" fill="#6CAC48"/>
<path d="M7.76306 28.0421C7.79728 27.6532 7.98498 27.3304 8.18929 27.0087C7.984 26.9241 7.8315 26.7559 7.71223 26.5683C7.60939 26.3906 7.52426 26.2034 7.45806 26.0093C7.21953 25.2977 7.16869 24.5511 7.10026 23.8239V23.3835C7.01521 23.4516 6.99762 24.0271 6.99762 24.1126C6.94787 24.8812 6.84531 25.6455 6.69065 26.4001C6.63982 26.7054 6.6056 27.0096 6.41693 27.2809C6.41693 27.3149 6.41693 27.3489 6.43355 27.3995C6.74051 28.2977 6.82458 29.2125 6.8764 30.1448V30.4851C6.8764 30.8914 6.85978 30.8059 7.199 30.942C7.33586 30.9925 7.48836 31.01 7.62523 31.1111C7.72787 31.1111 7.74449 31.0265 7.74449 30.9585L7.69366 30.3995V28.8402C7.67704 28.568 7.72787 28.2977 7.76209 28.043L7.76306 28.0421Z" fill="#C2BFBF"/>
</svg>
